<?xml version="1.0" standalone="no"?>
<!DOCTYPE svg PUBLIC "-//W3C//DTD SVG 20010904//EN"
 "http://www.w3.org/TR/2001/REC-SVG-20010904/DTD/svg10.dtd">
<svg version="1.0" xmlns="http://www.w3.org/2000/svg"
 width="1200.000000pt" height="1200.000000pt" viewBox="0 0 1200.000000 1200.000000"
 preserveAspectRatio="xMidYMid meet">
<metadata>
Created by potrace 1.16, written by Peter Selinger 2001-2019
</metadata>
<g transform="translate(0.000000,1200.000000) scale(0.100000,-0.100000)"
fill="#000000" stroke="none">
<path d="M2320 7650 c-186 -30 -395 -98 -530 -173 -207 -114 -427 -315 -549
-500 -183 -279 -262 -543 -262 -877 0 -374 123 -708 367 -1002 l64 -76 -19
-49 c-11 -27 -22 -70 -26 -95 -7 -44 -8 -46 -48 -51 -51 -7 -112 -50 -151
-105 -25 -35 -31 -55 -34 -113 -5 -85 13 -141 64 -193 72 -74 41 -71 609 -74
346 -2 529 0 568 8 95 18 175 74 224 157 19 33 32 44 56 47 18 3 70 10 117 17
104 14 222 48 356 100 l102 40 52 -33 c45 -28 64 -33 126 -36 60 -3 81 0 119
18 117 56 180 203 144 333 -10 37 -9 39 54 115 449 539 487 1295 94 1877 -85
126 -294 333 -417 414 -170 112 -356 190 -548 232 -109 23 -432 35 -532 19z
m331 -982 c77 -60 95 -131 64 -248 -32 -120 -14 -185 80 -291 80 -89 93 -131
55 -169 -19 -19 -33 -20 -233 -20 -236 0 -251 -4 -245 -55 2 -24 10 -32 34
-39 17 -5 35 -19 40 -30 5 -12 25 -29 44 -38 30 -16 66 -18 268 -18 142 0 232
-4 232 -10 0 -27 -53 -30 -502 -30 -462 1 -463 1 -439 20 19 16 38 20 105 20
87 0 106 8 106 47 0 24 -26 43 -59 43 -16 0 -20 6 -19 24 1 14 -4 36 -12 50
-24 47 -9 51 220 56 l210 5 26 27 c20 20 25 32 20 52 -8 31 -31 44 -93 53 -26
3 -59 14 -72 25 -18 14 -41 18 -102 18 l-79 0 0 28 c0 49 51 80 175 107 96 21
124 35 158 75 31 36 47 88 47 152 0 62 -14 95 -58 141 -44 46 -28 48 29 5z
m439 -1098 c0 -10 -9 -24 -19 -30 -24 -12 -1147 -14 -1155 -2 -3 5 2 18 10 30
l15 22 575 0 c564 0 574 0 574 -20z m-121 -162 c0 -18 -6 -73 -12 -122 -12
-86 -13 -90 -40 -97 -82 -22 -143 -114 -134 -202 2 -29 8 -60 12 -69 7 -17 -3
-18 -120 -18 -119 0 -128 1 -159 25 -57 43 -121 66 -193 67 -38 1 -77 -1 -88
-5 -17 -6 -24 1 -45 41 -14 26 -52 74 -86 107 l-60 60 -12 97 c-7 53 -12 108
-12 122 l0 26 475 0 475 0 -1 -32z m368 -195 c21 -15 37 -39 44 -66 16 -54 26
-67 54 -67 31 0 85 -39 108 -77 23 -41 24 -120 2 -167 -52 -109 -200 -112
-253 -4 -11 24 -23 51 -26 61 -5 15 -21 17 -151 17 -188 0 -215 12 -215 93 0
40 35 77 72 77 22 0 44 -14 87 -55 l58 -55 5 83 c7 113 38 168 104 186 40 10
73 3 111 -26z m-1392 -92 c97 -46 165 -128 194 -238 l11 -42 56 26 c47 21 67
25 124 21 58 -3 76 -9 112 -35 162 -117 109 -362 -87 -403 -37 -8 -210 -10
-542 -8 -451 3 -491 4 -516 21 -91 60 -88 205 4 253 26 13 48 15 98 10 l66 -6
0 88 c0 79 3 94 33 154 49 100 125 160 232 185 73 16 142 8 215 -26z"/>
<path d="M4853 6905 c-3 -9 -2 -20 3 -25 5 -5 77 -11 159 -12 l150 -3 3 -238
c2 -200 0 -244 -13 -271 -23 -49 -95 -84 -202 -99 -76 -11 -88 -16 -88 -33 0
-17 7 -19 70 -17 109 3 221 51 269 116 20 27 21 40 21 310 l0 282 -183 3
c-159 2 -183 0 -189 -13z"/>
<path d="M5862 6902 c-117 -42 -174 -121 -173 -242 0 -131 65 -219 184 -255
67 -20 123 -19 195 4 73 22 122 55 122 82 0 29 -28 35 -58 12 -78 -58 -159
-74 -243 -50 -83 24 -139 92 -139 168 l0 29 208 0 c148 0 211 3 220 12 26 26
9 125 -31 179 -50 69 -183 97 -285 61z m207 -60 c31 -23 57 -65 66 -109 l7
-33 -196 0 c-220 0 -215 -2 -174 71 25 44 54 66 113 86 54 18 151 10 184 -15z"/>
<path d="M6925 6906 c-54 -17 -85 -34 -117 -64 l-28 -26 0 35 c0 58 -9 63 -82
50 -78 -15 -93 -23 -84 -46 5 -15 14 -16 56 -11 l50 7 0 -200 0 -200 -67 -3
c-60 -3 -68 -5 -68 -23 0 -19 7 -20 215 -20 208 0 215 1 215 20 0 19 -8 20
-117 23 l-118 3 0 140 c0 156 7 181 62 223 32 24 124 56 160 56 15 0 18 -8 18
-42 0 -52 11 -71 36 -66 16 3 20 14 22 66 2 39 -2 69 -9 78 -14 17 -89 17
-144 0z"/>
<path d="M7825 6906 c-54 -17 -85 -34 -117 -64 l-28 -26 0 35 c0 58 -9 63 -82
50 -78 -15 -93 -23 -84 -46 5 -15 14 -16 56 -11 l50 7 0 -200 0 -200 -67 -3
c-60 -3 -68 -5 -68 -23 0 -19 7 -20 215 -20 208 0 215 1 215 20 0 19 -8 20
-117 23 l-118 3 0 140 c0 156 7 181 62 223 32 24 124 56 160 56 15 0 18 -8 18
-42 0 -52 11 -71 36 -66 16 3 20 14 22 66 2 39 -2 69 -9 78 -14 17 -89 17
-144 0z"/>
<path d="M8330 6866 c0 -22 5 -25 41 -28 l41 -3 98 -220 97 -220 -19 -50 c-23
-62 -77 -115 -117 -115 -37 0 -59 -24 -41 -45 26 -31 104 -10 152 41 37 41 63
96 169 371 l94 242 35 3 c27 2 35 7 35 23 0 19 -7 20 -105 20 -98 0 -105 -1
-105 -20 0 -16 8 -21 38 -23 32 -3 37 -6 32 -20 -4 -9 -34 -89 -66 -176 -33
-88 -63 -166 -67 -173 -6 -10 -112 225 -158 350 -5 14 0 17 35 17 37 0 41 2
41 25 l0 25 -115 0 -115 0 0 -24z"/>
<path d="M6052 5468 c-41 -8 -52 -13 -50 -26 3 -14 13 -16 51 -14 l47 4 0
-226 0 -225 -47 -3 c-35 -2 -48 -7 -48 -18 0 -12 18 -16 93 -18 85 -3 93 -1
90 15 -2 10 -13 19 -26 21 -19 3 -22 9 -22 52 0 43 4 51 30 70 l29 21 65 -68
c63 -67 64 -68 38 -73 -15 -3 -28 -13 -30 -23 -3 -15 6 -17 81 -17 46 0 86 3
90 6 13 13 -7 34 -33 34 -22 0 -43 16 -99 77 -39 42 -71 80 -71 83 0 15 124
103 153 109 19 4 33 14 35 24 3 16 -5 18 -85 15 -70 -2 -88 -6 -88 -18 0 -8
12 -17 28 -20 27 -5 25 -8 -55 -67 l-83 -61 -3 179 c-3 202 6 185 -90 167z"/>
<path d="M8686 5404 c-3 -9 -6 -38 -6 -64 l0 -49 -42 -3 c-30 -2 -43 -8 -43
-18 0 -10 13 -16 43 -18 l42 -3 0 -130 c0 -124 1 -131 24 -154 31 -31 86 -40
150 -26 66 15 101 38 86 56 -8 10 -18 9 -47 -6 -51 -26 -127 -25 -153 1 -18
18 -20 33 -20 140 l0 119 93 3 c74 2 92 6 92 18 0 12 -18 16 -92 18 l-93 3 0
64 c0 49 -3 65 -14 65 -8 0 -17 -7 -20 -16z"/>
<path d="M4895 5301 c-97 -25 -149 -88 -148 -180 1 -94 50 -159 136 -182 76
-20 194 8 218 52 16 31 -14 33 -56 5 -71 -49 -195 -29 -237 38 -28 45 -22 145
12 182 33 35 79 54 134 54 72 0 93 -13 103 -62 10 -50 38 -65 49 -24 8 33 -14
76 -51 97 -35 21 -118 31 -160 20z"/>
<path d="M5523 5301 c-66 -17 -114 -68 -99 -106 10 -27 38 -13 51 25 13 38 33
47 101 49 55 1 84 -22 91 -76 l5 -41 -78 -7 c-91 -9 -120 -18 -151 -47 -32
-30 -32 -97 1 -135 22 -25 31 -28 88 -28 48 0 73 6 103 24 25 14 41 19 43 12
2 -6 11 -18 20 -27 27 -28 112 -3 112 32 0 16 -26 19 -35 4 -3 -5 -17 -10 -29
-10 -23 0 -23 3 -28 123 -5 129 -19 176 -58 197 -27 15 -99 20 -137 11z m147
-235 c0 -54 0 -54 -43 -75 -88 -43 -173 -19 -165 45 5 47 56 69 196 83 8 1 12
-16 12 -53z"/>
<path d="M6814 5301 c-89 -22 -144 -92 -144 -180 0 -123 95 -202 226 -188 64
7 134 43 134 69 0 24 -17 22 -65 -7 -80 -49 -190 -27 -235 47 -40 66 -37 68
128 68 102 0 152 4 160 12 18 18 14 79 -8 115 -33 55 -121 83 -196 64z m125
-46 c25 -13 36 -31 55 -87 5 -17 -6 -18 -139 -18 l-145 0 11 27 c23 60 74 92
147 93 24 0 56 -7 71 -15z"/>
<path d="M8054 5299 c-40 -12 -64 -38 -71 -82 -5 -31 -1 -40 23 -65 23 -23 47
-32 119 -46 116 -23 125 -28 125 -71 0 -51 -32 -68 -115 -63 -76 5 -115 28
-128 77 -4 18 -13 31 -20 28 -17 -5 -16 -129 1 -135 7 -2 16 5 19 16 l5 21 27
-20 c16 -12 51 -22 84 -26 111 -11 187 43 173 123 -9 48 -43 69 -143 88 -94
19 -123 36 -123 72 0 34 36 54 98 54 75 0 121 -21 128 -60 4 -16 13 -30 20
-30 11 0 14 17 14 65 0 40 -4 65 -11 65 -6 0 -13 -9 -16 -19 -5 -19 -6 -19
-46 0 -44 20 -111 23 -163 8z"/>
<path d="M9350 5299 c-108 -33 -161 -156 -111 -264 22 -49 48 -73 98 -91 79
-28 164 -12 217 41 85 85 62 245 -44 300 -37 19 -118 26 -160 14z m141 -52
c64 -42 84 -118 53 -197 -21 -52 -66 -80 -130 -80 -91 0 -144 57 -144 152 0
118 125 189 221 125z"/>
<path d="M10107 5296 c-22 -8 -49 -24 -61 -35 -30 -28 -36 -27 -36 10 l0 32
-46 -7 c-49 -6 -78 -22 -68 -37 3 -5 21 -7 40 -3 l34 6 0 -140 0 -141 -47 -3
c-35 -2 -48 -7 -48 -18 0 -13 24 -15 155 -15 131 0 155 2 155 15 0 12 -17 16
-82 18 l-83 3 0 108 c0 99 2 109 23 129 28 26 88 52 121 52 21 0 25 -5 28 -32
2 -22 9 -34 21 -36 16 -3 18 3 15 50 l-3 53 -40 2 c-22 2 -57 -4 -78 -11z"/>
<path d="M10654 5301 c-89 -22 -144 -92 -144 -180 0 -123 95 -202 226 -188 64
7 134 43 134 69 0 24 -17 22 -65 -7 -80 -49 -190 -27 -235 47 -40 66 -37 68
128 68 102 0 152 4 160 12 18 18 14 79 -8 115 -33 55 -121 83 -196 64z m125
-46 c25 -13 36 -31 55 -87 5 -17 -6 -18 -139 -18 l-145 0 11 27 c23 60 74 92
147 93 24 0 56 -7 71 -15z"/>
</g>
</svg>
