<svg id="Capa_1" enable-background="new 0 0 512 512" height="512" viewBox="0 0 512 512" width="512" xmlns="http://www.w3.org/2000/svg"><g><path d="m487.192 419.152h-19.09c-1.69-16.728-9.014-32.235-21.057-44.287-.004-.004-.008-.009-.012-.013-.002-.002-.004-.004-.006-.006-13.848-13.83-32.242-21.447-51.795-21.447-11.905 0-23.145 2.873-33.093 7.933-7.652-19.655-27.413-33.841-49.568-33.824h-49.48c-4.143 0-7.5 3.358-7.5 7.5s3.357 7.5 7.5 7.5h49.48c.701 0 1.399.033 2.096.07-4.766 8.57-13.893 14.297-24.032 14.427-20.955-2.034-28.928 8.537-35.335 17.045-5.291 7.026-9.113 12.103-20.279 12.228-11.206 0-20.8-8.002-22.812-19.028l-4.483-24.537c1.544-.341 18.328-.167 20.291-.206 4.143 0 7.5-3.358 7.5-7.5s-3.357-7.5-7.5-7.5c-9.484.164-21.263-.858-31.146 2.044-19.976 5.691-34.65 22.608-37.927 42.681-14.051-30.543-32.659-42.818-33.787-43.541-3.473-2.225-8.078-1.215-10.322 2.248s-1.252 8.1 2.199 10.362c.239.157 16.852 11.385 29.234 39.562-4.076-2.294-8.725-3.586-13.537-3.586h-13.784l-12.425-11.686c-5.886-5.535-13.576-8.583-21.654-8.583h-21.731c-4.143 0-7.5 3.358-7.5 7.5v22.022c0 7.651 2.772 15.037 7.808 20.799l10.331 11.822h-33.872c-12.443 0-22.566 10.123-22.566 22.566v2.591c0 12.443 10.123 22.566 22.566 22.566h30.053l32.987 32.375c8.378 8.222 19.456 12.75 31.194 12.75h258.819c11.738 0 22.816-4.528 31.194-12.75l32.987-32.375h30.053c12.443 0 22.566-10.123 22.566-22.566v-2.591c.002-12.442-10.121-22.565-22.565-22.565zm-149.732-.002c1.392-10.782 5.747-20.646 12.214-28.755l27.853 28.758zm65.272-50.257c10.244 1.31 19.863 5.295 28.04 11.613l-28.04 28.04zm-15 39.235-27.284-28.17c7.819-5.839 17.147-9.756 27.284-11.066zm53.658-17.026c6.321 8.174 10.311 17.798 11.62 28.05h-39.67zm-268.138-10.362c0-14.176 7.927-27.028 20.034-33.61l4.168 22.816c3.312 18.156 19.112 31.334 37.65 31.333 18.627-.207 26.142-10.186 32.179-18.204 5.141-7.28 10.346-12.624 22.999-11.066 17.097 0 32.433-10.346 39.202-25.535 9.44 4.679 16.641 13.133 19.697 23.266-13.979 11.055-25.08 30.074-26.82 49.409h-149.109zm-98.513 16.72c-2.646-3.028-4.103-6.909-4.103-10.929v-14.522h14.232c4.245 0 8.286 1.602 11.378 4.51l14.59 13.722c1.392 1.308 3.229 2.037 5.139 2.037h16.757c4.814 0 9.288 2.796 11.396 7.124l9.628 19.751h-60.061zm420.02 46.85c0 4.172-3.395 7.566-7.566 7.566h-74.407c-4.143 0-7.5 3.358-7.5 7.5s3.357 7.5 7.5 7.5h22.94l-22.079 21.668c-5.557 5.453-12.904 8.456-20.688 8.456h-258.82c-7.784 0-15.132-3.003-20.688-8.456l-22.079-21.668h286.207c4.143 0 7.5-3.358 7.5-7.5s-3.357-7.5-7.5-7.5h-337.675c-4.172 0-7.566-3.394-7.566-7.566v-2.591c0-4.172 3.395-7.566 7.566-7.566h447.288c4.172 0 7.566 3.394 7.566 7.566v2.591z"/><path d="m167.093 151.763c5.321 5.901 12.042 10.575 19.438 13.517l60.29 23.972 9.997 12.398c1.543 1.919 3.357 3.601 5.363 4.975 6.628 4.591 15.024 5.722 22.571 3.201-3.344 9.19-7.604 15.933-10.206 19.557l-25.532-3.744c-13.2-1.936-26.639 3.279-35.079 13.607l-17.323 21.198c-1.69 2.068-2.152 4.88-1.215 7.381.938 2.501 3.137 4.314 5.771 4.76 0 0 33.128 5.427 35.232 5.427 8.015 0 15.832-2.548 22.307-7.192.544 5.335 2.427 10.537 5.613 15.047l13.321 18.858c1.413 2 3.703 3.173 6.125 3.173.22 0 .44-.01.662-.029 2.661-.235 4.995-1.868 6.13-4.287l9.153-19.523c4.695-10.017 3.772-21.938-2.407-31.111l-10.26-15.231c3.266-4.592 8.062-12.368 11.836-22.781 3.075 2.2 8.061 4.242 13.863 4.424 8.526 0 16.237-4.361 20.627-11.665l36.296-60.362c2.98-4.944 4.557-10.612 4.557-16.393v-39.8c0-8.742-3.662-17.193-10.048-23.189l-62.309-58.468c-6.511-6.115-15.018-9.483-23.954-9.483h-268.17c-4.143 0-7.5 3.358-7.5 7.5s3.357 7.5 7.5 7.5h268.17c5.105 0 9.966 1.924 13.688 5.419l62.308 58.468c3.377 3.17 5.313 7.636 5.313 12.252v39.8c0 3.051-.831 6.041-2.407 8.655l-36.302 60.372c-1.653 2.751-4.558 4.393-7.771 4.393-1.793 0-3.534-.534-5.043-1.548-2.426-1.627-3.865-4.287-3.992-7.105.152-1.047.29-2.106.41-3.182l17.577-66.837c.712-2.708-.143-5.585-2.217-7.465l-36.869-33.41c-1.965-1.78-4.725-2.389-7.256-1.606l-28.24 8.75c-3.14.973-5.28 3.877-5.28 7.164v20.38c0 1.476.436 2.918 1.251 4.148 1.443 2.174 4.646 5.586 11.175 12.482 9.447 9.978 29.104 30.742 31.096 38.104 4.6 16.944-1.843 19.843-3.96 20.796-3.438 1.179-8.758 2.083-12.893-2.788l-11.24-13.94c-.811-1.005-1.867-1.785-3.067-2.262l-62.12-24.7c-5.267-2.095-10.054-5.422-13.843-9.625l-46.979-50.293c-2.91-2.948-7.659-2.977-10.606-.066s-2.977 7.659-.065 10.606l7.133 7.222-118.667 11.068c-4.124.385-7.156 4.04-6.771 8.164.386 4.125 4.051 7.149 8.164 6.771l130.695-12.19zm65.481 110.927-16.187-2.742 9.162-11.211c5.122-6.268 13.276-9.428 21.288-8.258l16.995 2.492c-2.86 3.542-6.08 7.469-9.589 11.693-5.252 6.326-13.554 9.402-21.669 8.026zm53.555 15.002-3.678 7.845-5.88-8.324c-3.412-4.831-4.001-11.168-1.536-16.538 1.359-2.959 2.639-5.711 3.832-8.247l5.996 8.9c3.251 4.825 3.735 11.096 1.266 16.364zm-20.978-151.874c-3.08-3.253-6.47-6.833-8.319-8.941v-12.229l18.874-5.848 30.323 27.479-9.612 36.548c-5.857-9.808-17.719-22.699-31.266-37.009z"/></g></svg>